<?xml version="1.0" encoding="utf-8"?>
<!-- Generator: Adobe Illustrator 26.3.1, SVG Export Plug-In . SVG Version: 6.00 Build 0)  -->
<svg version="1.1" id="Layer_1" xmlns="http://www.w3.org/2000/svg" xmlns:xlink="http://www.w3.org/1999/xlink" x="0px" y="0px"
	 viewBox="0 0 736.6 326.1" style="enable-background:new 0 0 736.6 326.1;" xml:space="preserve">
<style type="text/css">
	.st0{fill:#229529;}
	.st1{fill:#FFC000;}
</style>
<g>
	<path class="st0" d="M208,88.5c-2.2-1.8-3.8-4.3-5.9-6.3c-2.2-2-4.6-3.8-6.3-5.3c-7.1,8.3-13.1,16.1-19.9,23.2
		c-7.2,7.5-15,14.4-26,16.2c-6.4,1.1-11.5,4.6-15.9,9.9c-9.6,11.6-21.4,20.6-35.4,26.3c-8.2,3.4-16.8,6.1-25.7,9.3
		c10.4,10.3,21.2,19.4,37.6,18.1C107,182.3,99,194,90.2,201.3c-3,2.5-6.2,4.7-10.1,7.6c5.7-0.4,10.2-0.7,15.5-1.1
		c-7.7,16.3-4.9,24-2.4,41.1c0,0,16.9-55.5,40.2-61.8c0.1,10.2,2.1,19.6,8,27.9c0.3-0.2,0.6-0.3,0.5-0.4c0-2.4-0.1-4.8-0.1-7.2
		c0.9-43.3,18.8-79,49.3-109c0.7-0.7,1.5-1.4,2.4-1.5c3.6-0.7,7.2-1.3,11.2-1.9c0.3,6.7-3,12-6.9,17.2c0,0-9.4,11-10.5,14.8
		s-1.7,14,3.5,17.8c-0.2-1.8-0.4-3.7-0.5-5.5c-0.1-7.3,7.2-18.1,9.8-20c2.3-1.7,4.7-3.2,7.1-4.8C215.4,108.8,215.8,94.8,208,88.5z
		 M143.1,140.4c-0.5-12.5,3.9-17.9,13.3-14.4C151.8,131,147.4,135.7,143.1,140.4z"/>
	<path id="XMLID_00000108287306515537672730000015134316774820379816_" class="st0" d="M222.3,130.3c-0.5-4.3-3.8-6.9-7.3-6.1
		s-9.4,8.8-7.3,8.6c2.5-0.2,7.7,0.7,7.7,0.7c1.8,2.8-0.9,6-2.9,7.2c-4.3,2.6-7.7,6.8-12.1,9.3c-6.8,3.8-14.1,6.8-21.2,10.3
		c-8.4,4.1-10.3,16.2-3.6,22.2c2.4-7.8,3.3-8.9,7.4-9.2c-0.8,26.5,2.3,39,13.3,51.3c-0.4-1.6-0.9-3.3-1.3-4.9
		c-0.4-1.8-0.9-3.6-1.2-5.4c-4.3-21.6-0.9-41.4,13.5-58.7c3.5-4.1,7.2-8.1,11.1-11.9C222.1,139.9,222.8,135.2,222.3,130.3z"/>
</g>
<path class="st1" d="M268.4,121.6c-11.5-50.7-62-82.5-112.7-71C124.1,57.7,99.9,80,88.9,108c-2.9,6-5.2,12.4-6.7,19
	c1-18.7,7.3-36.8,18.5-52.4c15.5-21.6,38.5-35.9,64.7-40.2s52.6,1.8,74.2,17.4c21.6,15.5,35.9,38.5,40.2,64.7
	c6.8,41.5-13.2,81.6-47.7,101.9C261.5,196.9,276.9,159.3,268.4,121.6z"/>
<g>
	<polygon points="239.7,272 232.5,248.1 219.7,248.1 212,271.7 204.8,248.1 190.4,248.1 203.7,289.6 218.7,289.6 225.7,267.4 
		232.4,289.6 247.4,289.6 260.6,248.1 247.4,248.1 	"/>
	<path d="M286.6,248.1l-18.1,41.4h14.2l2.8-7.2h15.8l2.8,7.2h14.4l-18.1-41.4H286.6z M289.3,272.3l4-10.4l4,10.4H289.3z"/>
	<path d="M369.5,272c1.5-2.3,2.3-5.1,2.3-8.3c0-3.2-0.8-6-2.3-8.3s-3.7-4.2-6.5-5.4c-2.8-1.3-6.2-1.9-10-1.9h-19.9v41.4h14v-10.4
		h3.8l7,10.4h14.9l-8.7-12.7C366.3,275.6,368.1,274,369.5,272z M356.3,260.2c0.9,0.9,1.4,2.1,1.4,3.6s-0.5,2.7-1.4,3.6
		s-2.4,1.3-4.3,1.3h-5.1V259h5.1C353.9,258.9,355.4,259.3,356.3,260.2z"/>
	<polygon points="403,273.6 420.5,273.6 420.5,263.5 403,263.5 403,258.7 423,258.7 423,248.1 389.3,248.1 389.3,289.6 423.7,289.6 
		423.7,279 403,279 	"/>
	<polygon points="487.3,272 480.1,248.1 467.2,248.1 459.6,271.7 452.4,248.1 438,248.1 451.3,289.6 466.2,289.6 473.3,267.4 
		480,289.6 494.9,289.6 508.2,248.1 494.9,248.1 	"/>
	<path d="M550,270.5c0,3.2-0.6,5.4-1.7,6.7c-1.1,1.3-2.7,2-4.6,2c-1.9,0-3.5-0.7-4.6-2s-1.7-3.6-1.7-6.7v-22.4h-14v22.8
		c0,6.2,1.8,11,5.3,14.4c3.6,3.4,8.5,5.1,14.9,5.1s11.3-1.7,14.9-5.1c3.6-3.4,5.3-8.2,5.3-14.4v-22.8H550V270.5z"/>
	<polygon points="596.6,248.1 582.6,248.1 582.6,289.6 615.3,289.6 615.3,278.7 596.6,278.7 	"/>
	<polygon points="664.2,258.7 664.2,248.1 630.5,248.1 630.5,289.6 644.5,289.6 644.5,276.3 661.8,276.3 661.8,265.8 644.5,265.8 
		644.5,258.7 	"/>
</g>
</svg>
